<svg width="26" height="26" viewBox="0 0 26 26" fill="none" xmlns="http://www.w3.org/2000/svg">
<g clip-path="url(#clip0)">
<path d="M12.9101 13.9744C12.9361 13.9744 12.9621 13.9744 12.9932 13.9744C13.0036 13.9744 13.014 13.9744 13.0244 13.9744C13.04 13.9744 13.0608 13.9744 13.0764 13.9744C14.5991 13.9484 15.8307 13.4131 16.7402 12.3894C18.741 10.1339 18.4084 6.26745 18.372 5.89847C18.2421 3.12854 16.9325 1.80333 15.8515 1.18491C15.046 0.722386 14.1054 0.472936 13.0556 0.452148H13.0192C13.014 0.452148 13.0036 0.452148 12.9984 0.452148H12.9673C12.3904 0.452148 11.2575 0.545692 10.1713 1.16412C9.08 1.78255 7.7496 3.10775 7.61968 5.89847C7.5833 6.26745 7.2507 10.1339 9.2515 12.3894C10.1558 13.4131 11.3874 13.9484 12.9101 13.9744ZM9.00724 6.02839C9.00724 6.0128 9.01244 5.99721 9.01244 5.98681C9.18394 2.26066 11.8291 1.8605 12.9621 1.8605H12.9828C12.9932 1.8605 13.0088 1.8605 13.0244 1.8605C14.4276 1.89168 16.8129 2.46334 16.974 5.98681C16.974 6.00241 16.974 6.018 16.9792 6.02839C16.9844 6.06477 17.3482 9.59864 15.6956 11.4591C15.0408 12.1971 14.1677 12.5609 13.0192 12.5712C13.0088 12.5712 13.0036 12.5712 12.9932 12.5712C12.9828 12.5712 12.9777 12.5712 12.9673 12.5712C11.8239 12.5609 10.9457 12.1971 10.2961 11.4591C8.64866 9.60903 9.00205 6.05957 9.00724 6.02839Z" fill="#439FF4"/>
<path d="M23.6731 20.3874C23.6731 20.3822 23.6731 20.377 23.6731 20.3718C23.6731 20.3303 23.6679 20.2887 23.6679 20.2419C23.6367 19.2129 23.5691 16.8068 21.3137 16.0376C21.2981 16.0324 21.2773 16.0272 21.2617 16.022C18.9179 15.4244 16.9691 14.0732 16.9483 14.0576C16.6313 13.8342 16.1948 13.9121 15.9713 14.2291C15.7479 14.5461 15.8258 14.9827 16.1428 15.2061C16.2312 15.2685 18.2995 16.708 20.8876 17.3732C22.0984 17.8046 22.2336 19.0986 22.2699 20.2835C22.2699 20.3303 22.2699 20.3718 22.2751 20.4134C22.2803 20.8811 22.2491 21.6035 22.166 22.0192C21.3241 22.4974 18.0241 24.15 13.0039 24.15C8.00452 24.15 4.68372 22.4922 3.83663 22.014C3.75348 21.5983 3.7171 20.8759 3.7275 20.4082C3.7275 20.3666 3.73269 20.3251 3.73269 20.2783C3.76907 19.0934 3.90419 17.7994 5.11506 17.368C7.7031 16.7028 9.77146 15.2581 9.8598 15.2009C10.1768 14.9775 10.2548 14.5409 10.0313 14.2239C9.80784 13.9069 9.3713 13.829 9.05429 14.0524C9.0335 14.068 7.09507 15.4192 4.74089 16.0169C4.7201 16.022 4.70451 16.0272 4.68892 16.0324C2.43348 16.8068 2.36592 19.2129 2.33474 20.2367C2.33474 20.2835 2.33474 20.3251 2.32954 20.3666C2.32954 20.3718 2.32954 20.377 2.32954 20.3822C2.32434 20.6525 2.31915 22.04 2.59458 22.7364C2.64655 22.8715 2.74009 22.9859 2.86482 23.0638C3.02072 23.1677 6.75727 25.5479 13.0091 25.5479C19.2609 25.5479 22.9975 23.1626 23.1534 23.0638C23.2729 22.9859 23.3717 22.8715 23.4236 22.7364C23.6835 22.0452 23.6783 20.6577 23.6731 20.3874Z" fill="#439FF4"/>
</g>
<defs>
<clipPath id="clip0">
<rect width="25.0957" height="25.0957" fill="white" transform="translate(0.453125 0.452148)"/>
</clipPath>
</defs>
</svg>
