<svg width="48" height="48" viewBox="0 0 48 48" fill="none" xmlns="http://www.w3.org/2000/svg">
<circle cx="24" cy="24" r="24" fill="#439FF4"/>
<path d="M23.9136 24.9319C23.9384 24.9319 23.9633 24.9319 23.9931 24.9319C24.003 24.9319 24.013 24.9319 24.0229 24.9319C24.0378 24.9319 24.0577 24.9319 24.0726 24.9319C25.5288 24.907 26.7067 24.3951 27.5765 23.416C29.4899 21.2591 29.1718 17.5614 29.137 17.2085C29.0128 14.5595 27.7603 13.2922 26.7266 12.7008C25.9562 12.2584 25.0567 12.0199 24.0527 12H24.018C24.013 12 24.003 12 23.9981 12H23.9683C23.4166 12 22.3331 12.0895 21.2944 12.6809C20.2507 13.2723 18.9784 14.5397 18.8541 17.2085C18.8194 17.5614 18.5013 21.2591 20.4147 23.416C21.2795 24.3951 22.4574 24.907 23.9136 24.9319ZM20.1811 17.3328C20.1811 17.3179 20.1861 17.303 20.1861 17.293C20.3501 13.7296 22.8798 13.3469 23.9633 13.3469H23.9832C23.9931 13.3469 24.008 13.3469 24.0229 13.3469C25.3648 13.3767 27.646 13.9234 27.8001 17.293C27.8001 17.3079 27.8001 17.3228 27.8051 17.3328C27.81 17.3676 28.1579 20.7472 26.5775 22.5264C25.9513 23.2321 25.1163 23.58 24.018 23.59C24.008 23.59 24.003 23.59 23.9931 23.59C23.9832 23.59 23.9782 23.59 23.9683 23.59C22.8749 23.58 22.0349 23.2321 21.4137 22.5264C19.8382 20.7571 20.1762 17.3626 20.1811 17.3328Z" fill="white"/>
<path d="M34.206 31.0647C34.206 31.0598 34.206 31.0548 34.206 31.0498C34.206 31.0101 34.201 30.9703 34.201 30.9256C34.1712 29.9415 34.1066 27.6404 31.9496 26.9049C31.9347 26.8999 31.9148 26.8949 31.8999 26.89C29.6585 26.3184 27.7947 25.0262 27.7749 25.0113C27.4717 24.7976 27.0542 24.8721 26.8405 25.1753C26.6268 25.4785 26.7013 25.896 27.0045 26.1097C27.089 26.1693 29.0671 27.546 31.5421 28.1821C32.7001 28.5947 32.8293 29.8322 32.8641 30.9653C32.8641 31.0101 32.8641 31.0498 32.8691 31.0896C32.8741 31.5369 32.8442 32.2277 32.7647 32.6253C31.9596 33.0825 28.8036 34.663 24.0026 34.663C19.2215 34.663 16.0457 33.0776 15.2356 32.6203C15.1561 32.2227 15.1213 31.5319 15.1312 31.0846C15.1312 31.0449 15.1362 31.0051 15.1362 30.9604C15.171 29.8272 15.3002 28.5897 16.4582 28.1772C18.9333 27.541 20.9113 26.1594 20.9958 26.1047C21.299 25.891 21.3735 25.4735 21.1598 25.1703C20.9461 24.8672 20.5286 24.7926 20.2255 25.0063C20.2056 25.0212 18.3518 26.3134 16.1004 26.885C16.0805 26.89 16.0656 26.8949 16.0507 26.8999C13.8937 27.6404 13.8291 29.9415 13.7993 30.9206C13.7993 30.9653 13.7993 31.0051 13.7943 31.0449C13.7943 31.0498 13.7943 31.0548 13.7943 31.0598C13.7894 31.3182 13.7844 32.6452 14.0478 33.3112C14.0975 33.4404 14.1869 33.5497 14.3062 33.6243C14.4553 33.7237 18.0287 35.9999 24.0076 35.9999C29.9865 35.9999 33.5599 33.7187 33.709 33.6243C33.8233 33.5497 33.9177 33.4404 33.9674 33.3112C34.2159 32.6502 34.211 31.3232 34.206 31.0647Z" fill="white"/>
</svg>
