<svg
   xmlns="http://www.w3.org/2000/svg"
   viewBox="0 0 298.39844 298.39844"
   height="298.39844pt"
   width="298.39844pt">

  <g
     transform="translate(-148.30078,-271.80078)"
     id="surface1">
    <path
       id="path2"
       d="m 375.3125,394.71484 c -5.71094,0 -9.99219,1.6875 -12.84375,5.0586 -2.95703,3.66406 -4.48047,8.27734 -4.28516,12.98047 v 16.49218 c -0.19531,4.70313 1.32813,9.31641 4.28516,12.98047 2.85156,3.3711 7.13281,5.05469 12.84375,5.05469 5.70703,0 9.98828,-1.68359 12.84375,-5.05469 2.95703,-3.66406 4.48047,-8.27734 4.28516,-12.98047 v -16.49218 c 0.19531,-4.70313 -1.32813,-9.31641 -4.28516,-12.98047 -2.85547,-3.3711 -7.13672,-5.05469 -12.84375,-5.0586 z m 0,0"
       style="fill:#439FF4;fill-opacity:1;fill-rule:nonzero;stroke:none" />
    <path
       id="path4"
       d="m 297.5,271.80078 c -82.40234,0 -149.19922,66.79688 -149.19922,149.19922 0,82.40234 66.79688,149.19922 149.19922,149.19922 82.40234,0 149.19922,-66.79688 149.19922,-149.19922 0,-82.40234 -66.79688,-149.19922 -149.19922,-149.19922 z M 203.30078,469.875 c -17.22266,0.0117 -31.19141,-13.94531 -31.19141,-31.16406 0,-17.22266 13.96875,-31.17969 31.19141,-31.16797 z m 107.05469,0 h -31.33985 v -58.21484 c 0.23047,-3.89844 -1.05859,-7.73438 -3.59765,-10.70313 -2.79297,-2.73437 -6.6211,-4.14453 -10.52344,-3.87109 -3.88281,-0.1875 -7.69922,1.07812 -10.70312,3.55078 -2.70313,2.37109 -4.05469,6.16797 -4.05469,11.39062 V 469.875 h -31.33985 v -4.15234 c 9.69141,-5.54297 15.66797,-15.85157 15.66797,-27.01172 0,-11.16407 -5.97656,-21.47266 -15.66797,-27.01563 V 372.125 h 30.0625 v 11.38672 c 2.47266,-4.41406 6.24219,-7.96094 10.79688,-10.16016 5.13672,-2.42969 10.76562,-3.63281 16.44531,-3.50781 11.05469,0 19.52735,3.29687 25.41797,9.88672 5.89063,6.58984 8.83594,15.625 8.83594,27.10156 z M 410.25,459.76562 c -8.41406,8.25782 -20.05859,12.39063 -34.9375,12.39063 -14.88281,0 -26.52734,-4.13281 -34.9375,-12.39063 -8.41406,-8.26171 -12.62109,-19.01171 -12.61719,-32.25 v -13.03125 c 0,-13.23828 4.20313,-23.98828 12.61719,-32.25 8.41016,-8.25781 20.05859,-12.38671 34.9375,-12.39062 14.87891,0 26.52734,4.13281 34.9375,12.39062 8.41016,8.26172 12.61719,19.01172 12.61719,32.25 v 13.03125 c 0,13.23829 -4.20313,23.98829 -12.61719,32.25 z m 0,0"
       style="fill:#439FF4;fill-opacity:1;fill-rule:nonzero;stroke:none" />
  </g>
</svg>
