<svg width="10" height="10" viewBox="0 0 10 10" fill="none" xmlns="http://www.w3.org/2000/svg">
<path d="M9.64299 3.91341C9.58189 3.72442 9.41426 3.59019 9.21595 3.57231L6.52209 3.32771L5.45687 0.83445C5.37832 0.651726 5.19944 0.533447 5.0007 0.533447C4.80195 0.533447 4.62307 0.651726 4.54453 0.834877L3.47931 3.32771L0.785024 3.57231C0.587062 3.59061 0.419862 3.72442 0.358408 3.91341C0.296954 4.1024 0.353708 4.30969 0.503462 4.44036L2.5397 6.22615L1.93926 8.87108C1.89532 9.06556 1.9708 9.26658 2.13217 9.38322C2.2189 9.44589 2.32037 9.47779 2.4227 9.47779C2.51093 9.47779 2.59845 9.454 2.67699 9.40701L5.0007 8.01821L7.32355 9.40701C7.49353 9.50926 7.7078 9.49993 7.8688 9.38322C8.03024 9.26622 8.10565 9.06513 8.06171 8.87108L7.46127 6.22615L9.49751 4.44071C9.64726 4.30969 9.70444 4.10275 9.64299 3.91341Z" fill="#FFC107"/>
</svg>
