<svg width="30" height="34" viewBox="0 0 30 34" fill="none" xmlns="http://www.w3.org/2000/svg">
<path d="M14.8765 18.3202C14.9117 18.3202 14.9469 18.3202 14.9892 18.3202C15.0033 18.3202 15.0173 18.3202 15.0314 18.3202C15.0525 18.3202 15.0807 18.3202 15.1018 18.3202C17.1648 18.2849 18.8334 17.5597 20.0656 16.1727C22.7763 13.117 22.3257 7.87865 22.2764 7.37875C22.1004 3.62601 20.3261 1.83061 18.8616 0.992752C17.7703 0.366121 16.4959 0.0281632 15.0737 0H15.0244C15.0173 0 15.0033 0 14.9962 0H14.954C14.1724 0 12.6375 0.126734 11.166 0.964589C9.68745 1.80244 7.88501 3.59785 7.70899 7.37875C7.6597 7.87865 7.20909 13.117 9.9198 16.1727C11.1449 17.5597 12.8136 18.2849 14.8765 18.3202ZM9.58888 7.55477C9.58888 7.53365 9.59592 7.51253 9.59592 7.49845C9.82827 2.4502 13.412 1.90806 14.9469 1.90806H14.9751C14.9892 1.90806 15.0103 1.90806 15.0314 1.90806C16.9324 1.9503 20.1642 2.72479 20.3824 7.49845C20.3824 7.51957 20.3824 7.54069 20.3895 7.55477C20.3965 7.60406 20.8894 12.3918 18.6504 14.9124C17.7632 15.9122 16.5804 16.4051 15.0244 16.4191C15.0103 16.4191 15.0033 16.4191 14.9892 16.4191C14.9751 16.4191 14.968 16.4191 14.954 16.4191C13.405 16.4051 12.2151 15.9122 11.335 14.9124C9.10306 12.4059 9.58184 7.59702 9.58888 7.55477Z" fill="#439FF4"/>
<path d="M29.4585 27.0086C29.4585 27.0015 29.4585 26.9945 29.4585 26.9875C29.4585 26.9311 29.4515 26.8748 29.4515 26.8114C29.4092 25.4174 29.3177 22.1575 26.262 21.1154C26.2409 21.1084 26.2127 21.1013 26.1916 21.0943C23.0162 20.2846 20.3759 18.454 20.3477 18.4329C19.9182 18.1301 19.3268 18.2357 19.024 18.6652C18.7213 19.0947 18.8269 19.6861 19.2564 19.9889C19.3761 20.0734 22.1783 22.0237 25.6846 22.9249C27.3251 23.5093 27.5082 25.2625 27.5575 26.8678C27.5575 26.9311 27.5575 26.9875 27.5645 27.0438C27.5716 27.6775 27.5293 28.6561 27.4167 29.2194C26.2761 29.8671 21.8052 32.1061 15.0037 32.1061C8.2305 32.1061 3.73144 29.8601 2.58379 29.2123C2.47113 28.6491 2.42185 27.6704 2.43593 27.0367C2.43593 26.9804 2.44297 26.9241 2.44297 26.8607C2.49226 25.2554 2.67532 23.5023 4.31582 22.9179C7.82214 22.0167 10.6244 20.0593 10.7441 19.9819C11.1736 19.6791 11.2792 19.0877 10.9764 18.6582C10.6737 18.2287 10.0822 18.1231 9.65275 18.4258C9.62458 18.447 6.99836 20.2776 3.80888 21.0873C3.78072 21.0943 3.7596 21.1013 3.73848 21.1084C0.682771 22.1575 0.591241 25.4174 0.548996 26.8044C0.548996 26.8678 0.548996 26.9241 0.541955 26.9804C0.541955 26.9875 0.541955 26.9945 0.541955 27.0015C0.534915 27.3677 0.527874 29.2476 0.901036 30.191C0.971444 30.3741 1.09818 30.529 1.26716 30.6346C1.47838 30.7754 6.54071 34.0001 15.0108 34.0001C23.4809 34.0001 28.5432 30.7684 28.7544 30.6346C28.9164 30.529 29.0501 30.3741 29.1205 30.191C29.4726 29.2546 29.4655 27.3747 29.4585 27.0086Z" fill="#439FF4"/>
</svg>
