<svg width="96" height="96" viewBox="0 0 96 96" fill="none" xmlns="http://www.w3.org/2000/svg">
<g clip-path="url(#clip0)">
<rect width="137" height="137" rx="8" fill="#D9ECFD"/>
<rect x="70.5801" y="46.0176" width="9.1972" height="17.3433" rx="3" transform="rotate(23.717 70.5801 46.0176)" fill="#BEE0FF"/>
<rect x="34.625" y="53.0303" width="9.1972" height="25.225" rx="3" transform="rotate(23.717 34.625 53.0303)" fill="#BEE0FF"/>
<rect x="60.4824" y="33.8477" width="9.1972" height="48.6553" rx="3" transform="rotate(23.717 60.4824 33.8477)" fill="#B0F0F0"/>
<rect x="46.248" y="23" width="9.1972" height="29.4614" rx="3" transform="rotate(23.717 46.248 23)" fill="#B0F0F0"/>
<rect x="26.1465" y="36.2129" width="9.1972" height="22.7387" rx="3" transform="rotate(23.717 26.1465 36.2129)" fill="#BEE0FF"/>
<path d="M47.8262 52.8637C47.8759 52.8637 47.9256 52.8637 47.9852 52.8637C48.0051 52.8637 48.025 52.8637 48.0449 52.8637C48.0747 52.8637 48.1144 52.8637 48.1443 52.8637C51.0567 52.814 53.4124 51.7902 55.1519 49.8321C58.9788 45.5181 58.3427 38.1228 58.2731 37.4171C58.0246 32.1191 55.5197 29.5844 53.4522 28.4015C51.9115 27.5169 50.1124 27.0398 48.1045 27H48.0349C48.025 27 48.0051 27 47.9952 27H47.9355C46.8322 27 44.6653 27.1789 42.5878 28.3618C40.5004 29.5446 37.9558 32.0793 37.7073 37.4171C37.6377 38.1228 37.0016 45.5181 40.8285 49.8321C42.558 51.7902 44.9138 52.814 47.8262 52.8637ZM40.3613 37.6656C40.3613 37.6357 40.3712 37.6059 40.3712 37.586C40.6992 30.4591 45.7587 29.6937 47.9256 29.6937H47.9654C47.9852 29.6937 48.015 29.6937 48.0449 29.6937C50.7287 29.7534 55.2911 30.8468 55.5992 37.586C55.5992 37.6159 55.5992 37.6457 55.6092 37.6656C55.6191 37.7351 56.3149 44.4943 53.154 48.0528C51.9016 49.4643 50.2317 50.1601 48.0349 50.18C48.015 50.18 48.0051 50.18 47.9852 50.18C47.9653 50.18 47.9554 50.18 47.9355 50.18C45.7487 50.1601 44.0689 49.4643 42.8264 48.0528C39.6754 44.5142 40.3513 37.7252 40.3613 37.6656Z" fill="#439FF4"/>
<path d="M68.412 65.1295C68.412 65.1195 68.412 65.1096 68.412 65.0996C68.412 65.0201 68.4021 64.9406 68.4021 64.8511C68.3424 62.883 68.2132 58.2808 63.8993 56.8097C63.8694 56.7998 63.8297 56.7898 63.7999 56.7799C59.317 55.6368 55.5895 53.0524 55.5497 53.0226C54.9434 52.5952 54.1084 52.7443 53.681 53.3506C53.2536 53.957 53.4027 54.7919 54.009 55.2193C54.178 55.3386 58.1341 58.092 63.0842 59.3643C65.4002 60.1893 65.6586 62.6644 65.7282 64.9307C65.7282 65.0201 65.7282 65.0996 65.7382 65.1792C65.7481 66.0738 65.6885 67.4554 65.5294 68.2506C63.9191 69.1651 57.6073 72.326 48.0053 72.326C38.4431 72.326 32.0914 69.1551 30.4712 68.2407C30.3122 67.4455 30.2426 66.0638 30.2625 65.1692C30.2625 65.0897 30.2724 65.0102 30.2724 64.9207C30.342 62.6544 30.6004 60.1794 32.9165 59.3544C37.8665 58.082 41.8226 55.3187 41.9916 55.2094C42.598 54.782 42.7471 53.947 42.3196 53.3407C41.8922 52.7343 41.0573 52.5853 40.4509 53.0127C40.4112 53.0425 36.7036 55.6269 32.2008 56.77C32.161 56.7799 32.1312 56.7898 32.1014 56.7998C27.7874 58.2808 27.6582 62.883 27.5986 64.8412C27.5986 64.9307 27.5986 65.0102 27.5886 65.0897C27.5886 65.0996 27.5886 65.1096 27.5886 65.1195C27.5787 65.6364 27.5688 68.2904 28.0956 69.6223C28.195 69.8808 28.3739 70.0994 28.6125 70.2485C28.9107 70.4473 36.0575 74.9998 48.0152 74.9998C59.973 74.9998 67.1198 70.4374 67.418 70.2485C67.6466 70.0994 67.8355 69.8808 67.9349 69.6223C68.4319 68.3003 68.4219 65.6463 68.412 65.1295Z" fill="#439FF4"/>
</g>
<defs>
<clipPath id="clip0">
<rect width="96" height="96" rx="8" fill="white"/>
</clipPath>
</defs>
</svg>
