<svg width="24" height="24" viewBox="0 0 24 24" fill="none" xmlns="http://www.w3.org/2000/svg">
<g clip-path="url(#clip0)">
<path d="M15.6184 5.39224C14.2635 2.6257 11.4293 0.796631 8.25017 0.796631C3.7012 0.796631 0.000361231 4.47647 0.000361231 8.99956C0.000361231 10.2288 0.264261 11.407 0.785124 12.5055L0.0140015 16.3615C-0.0841524 16.8524 0.348869 17.2863 0.839826 17.1891L4.74344 16.4174C5.26904 16.6667 5.81277 16.8563 6.37146 16.9869C5.11913 11.0555 9.61509 5.48777 15.6184 5.39224Z" fill="#439FF4"/>
<path d="M23.2151 18.5051C23.3498 18.221 23.467 17.9316 23.5672 17.6373H23.5414C25.2968 12.4851 21.6053 7.07002 16.1557 6.80636C16.1556 6.80608 16.1555 6.8058 16.1554 6.80551C11.4663 6.58943 7.57056 10.3438 7.57056 14.9993C7.57056 19.5186 11.2436 23.1955 15.7614 23.2021C16.9869 23.2004 18.1614 22.9366 19.2567 22.4171C23.532 23.2623 23.1985 23.2022 23.2968 23.2022C23.7411 23.2022 24.073 22.795 23.9862 22.3612L23.2151 18.5051Z" fill="#5DB1FF"/>
</g>
<defs>
<clipPath id="clip0">
<rect width="24" height="24" fill="white"/>
</clipPath>
</defs>
</svg>
