<svg width="17" height="12" viewBox="0 0 17 12" fill="none" xmlns="http://www.w3.org/2000/svg">
<path d="M9.65678 10.483C9.54318 10.5983 9.38821 10.6625 9.22722 10.6625C9.06623 10.6625 8.91125 10.5983 8.79766 10.483L7.2251 9.0001L8.94345 7.26731L9.22722 7.45017L15.0147 1.61399C15.3708 1.25497 15.948 1.25497 16.3035 1.61399L16.733 2.04727C17.089 2.40628 17.089 2.98833 16.733 3.34678L9.65678 10.483Z" fill="#49E1BD"/>
<path d="M4.55673 10.483C4.44313 10.5983 4.28815 10.6625 4.12716 10.6625C3.96618 10.6625 3.8112 10.5983 3.6976 10.483L0.267015 7.02306C-0.0890051 6.66405 -0.0890051 6.08189 0.267015 5.72355L0.696576 5.29027C1.05271 4.93126 1.62935 4.93126 1.98537 5.29027L4.12716 7.45017L9.91461 1.61399C10.2707 1.25497 10.8479 1.25497 11.2034 1.61399L11.633 2.04727C11.989 2.40628 11.989 2.98833 11.633 3.34678L4.55673 10.483Z" fill="#49E1BD"/>
</svg>
