<svg width="14" height="16" viewBox="0 0 14 16" fill="none" xmlns="http://www.w3.org/2000/svg">
<path d="M13.018 6.13879L11.8694 7.32213L6.70062 12.6468C5.74803 13.6208 4.21035 13.6179 3.26132 12.6402C2.3123 11.6625 2.30945 10.0783 3.2549 9.09697L8.42342 3.77074C8.63481 3.55284 8.97771 3.55284 9.18922 3.77074C9.40062 3.98865 9.40062 4.34178 9.18922 4.55968L4.02071 9.88591C3.4921 10.4305 3.4921 11.3133 4.02071 11.8578C4.54932 12.4024 5.4062 12.4024 5.93481 11.8578L11.1049 6.53319L12.2535 5.34997C13.2052 4.36921 13.2048 2.77945 12.2529 1.79919C11.3009 0.818922 9.7579 0.819167 8.80626 1.79992L7.84927 2.78619L2.48922 8.30815L2.10625 8.70256C0.767727 10.1246 0.784729 12.3902 2.1443 13.7909C3.50399 15.1916 5.70308 15.2091 7.08346 13.8301L12.8264 7.91362C12.9632 7.77276 13.1626 7.71777 13.3494 7.76933C13.5363 7.8209 13.6823 7.97119 13.7323 8.16374C13.7824 8.35629 13.7289 8.56158 13.5922 8.70256L7.84927 14.6189C6.05073 16.4634 3.14243 16.4599 1.34806 14.6112C-0.446435 12.7626 -0.449764 9.76649 1.34057 7.91362L7.08346 1.99725L8.04188 1.01098C9.42404 -0.356709 11.6145 -0.333927 12.9694 1.06243C14.3244 2.45866 14.346 4.71524 13.018 6.13879Z" fill="#334E68"/>
</svg>
