<svg width="14" height="14" viewBox="0 0 14 14" fill="none" xmlns="http://www.w3.org/2000/svg">
<path d="M13 8.99951C12.7238 8.99951 12.5 9.22337 12.5 9.49952V12.4995C12.5 12.7757 12.2761 12.9995 12 12.9995H2.00003C1.72388 12.9995 1.50002 12.7757 1.50002 12.4995V9.49952C1.50002 9.22337 1.27616 8.99951 1.00001 8.99951C0.723857 8.99951 0.5 9.22337 0.5 9.49952V12.4995C0.5 13.3279 1.17157 13.9995 2 13.9995H12C12.8284 13.9995 13.5 13.3279 13.5 12.4995V9.49952C13.5 9.22337 13.2762 8.99951 13 8.99951Z" fill="#334E68"/>
<path d="M9.84192 8.6465C9.64815 8.45938 9.34098 8.45938 9.14724 8.6465L7.49973 10.293V0.500009C7.49973 0.223857 7.27588 0 6.99973 0C6.72357 0 6.49972 0.223857 6.49972 0.500009V10.293L4.85321 8.6465C4.65458 8.45466 4.33806 8.46017 4.14622 8.65877C3.95907 8.85254 3.95907 9.15972 4.14622 9.35349L6.6462 11.8535C6.84123 12.049 7.15781 12.0494 7.35331 11.8544C7.3536 11.8541 7.35389 11.8538 7.35422 11.8535L9.8542 9.35349C10.0461 9.15486 10.0406 8.83833 9.84192 8.6465Z" fill="#334E68"/>
</svg>
