<svg width="28" height="28" viewBox="0 0 28 28" fill="none" xmlns="http://www.w3.org/2000/svg">
<path d="M26.4741 14.4284L26.7367 13.9999L26.4741 13.5711C26.4301 13.4996 25.374 11.7949 23.3221 10.0865C20.5931 7.81464 17.3781 6.61365 14.0244 6.61365C10.6716 6.61365 7.44864 7.814 4.70401 10.0848C2.64041 11.7923 1.5723 13.4957 1.52786 13.5675L1.25977 13.9999L1.52786 14.4323C1.5723 14.504 2.64041 16.2075 4.70401 17.9149C7.44864 20.1858 10.6716 21.3861 14.0244 21.3861C17.3781 21.3861 20.5931 20.1851 23.3221 17.9132C25.374 16.2049 26.4301 14.5002 26.4741 14.4284ZM22.2288 16.6883C19.7738 18.7169 17.0134 19.7453 14.0244 19.7453C11.0343 19.7453 8.26489 18.7162 5.79327 16.6864C4.51495 15.6367 3.64828 14.5737 3.22382 13.9999C3.6485 13.4257 4.51517 12.3629 5.79327 11.3131C8.26489 9.28351 11.0341 8.25427 14.0244 8.25427C17.0134 8.25427 19.7736 9.28287 22.2288 11.3112C23.5013 12.3627 24.3605 13.4272 24.7792 13.9999C24.3601 14.5728 23.5011 15.6373 22.2288 16.6883Z" fill="#90A4B7"/>
<path d="M14.0004 9.07092C11.2825 9.07092 9.07129 11.2821 9.07129 14.0001C9.07129 16.718 11.2825 18.9292 14.0004 18.9292C16.7184 18.9292 18.9296 16.718 18.9296 14.0001C18.9296 11.2821 16.7184 9.07092 14.0004 9.07092ZM14.0004 17.2886C12.1872 17.2886 10.7119 15.8133 10.7119 14.0001C10.7119 12.1868 12.1872 10.7115 14.0004 10.7115C15.8137 10.7115 17.2889 12.1868 17.2889 14.0001C17.2889 15.8133 15.8137 17.2886 14.0004 17.2886Z" fill="#90A4B7"/>
</svg>
