<svg width="16" height="16" viewBox="0 0 16 16" fill="none" xmlns="http://www.w3.org/2000/svg">
<path d="M14.2033 9.8611L13.0199 8.67775L7.69502 3.35311C6.71365 2.3791 5.12953 2.38203 4.15183 3.35973C3.17414 4.33742 3.1712 5.92155 4.14522 6.90291L9.46986 12.2291C9.68764 12.4471 10.0409 12.4471 10.2588 12.2291C10.4766 12.0112 10.4766 11.6581 10.2588 11.4402L4.93416 6.11397C4.38958 5.5694 4.38958 4.68663 4.93416 4.14205C5.47874 3.59748 6.3615 3.59748 6.90608 4.14205L12.2323 9.46669L13.4157 10.6499C14.396 11.6307 14.3957 13.2204 13.415 14.2007C12.4343 15.181 10.8447 15.1807 9.86427 14.2L8.87837 13.2137L3.3564 7.69173L2.96187 7.29732C1.58291 5.87525 1.60043 3.60972 3.00107 2.20896C4.40183 0.808319 6.66735 0.790804 8.08943 2.16976L14.0058 8.08626C14.1468 8.22712 14.3522 8.28212 14.5446 8.23055C14.7372 8.17899 14.8876 8.02869 14.9392 7.83614C14.9907 7.64359 14.9356 7.43831 14.7947 7.29732L8.87837 1.38095C7.0255 -0.463465 4.02935 -0.460035 2.18077 1.38866C0.332071 3.23724 0.328642 6.2334 2.17305 8.08626L8.08943 14.0026L9.0768 14.9889C10.5007 16.3566 12.7573 16.3338 14.1532 14.9375C15.5491 13.5412 15.5713 11.2846 14.2033 9.8611Z" fill="#334E68"/>
</svg>
