<svg width="32" height="32" viewBox="0 0 32 32" fill="none" xmlns="http://www.w3.org/2000/svg">
<circle cx="16" cy="16" r="15.5" stroke="#D9ECFD" fill="#ffffff"/>
<path d="M13.8609 18.5748V17.7907C13.8609 17.1126 14.0057 16.5227 14.2954 16.0212C14.585 15.5196 15.1148 14.9863 15.8848 14.4212C16.6265 13.8914 17.1139 13.4605 17.347 13.1285C17.5872 12.7965 17.7073 12.4256 17.7073 12.0159C17.7073 11.5567 17.5377 11.2071 17.1987 10.9669C16.8596 10.7267 16.3863 10.6066 15.7788 10.6066C14.7192 10.6066 13.5113 10.9528 12.155 11.645L11 9.3245C12.5753 8.4415 14.2459 8 16.0119 8C17.4671 8 18.6221 8.34967 19.4768 9.04901C20.3386 9.74834 20.7695 10.6808 20.7695 11.8464C20.7695 12.6234 20.5929 13.2945 20.2397 13.8596C19.8865 14.4247 19.2155 15.0605 18.2265 15.7669C17.5483 16.2684 17.1174 16.6499 16.9338 16.9113C16.7572 17.1726 16.6689 17.5152 16.6689 17.9391V18.5748H13.8609ZM13.5219 22.1987C13.5219 21.6053 13.6808 21.1567 13.9987 20.853C14.3166 20.5492 14.7792 20.3974 15.3868 20.3974C15.9731 20.3974 16.4252 20.5528 16.743 20.8636C17.068 21.1744 17.2305 21.6194 17.2305 22.1987C17.2305 22.7567 17.068 23.1982 16.743 23.5232C16.4181 23.8411 15.966 24 15.3868 24C14.7934 24 14.3342 23.8446 14.0093 23.5338C13.6843 23.2159 13.5219 22.7709 13.5219 22.1987Z" fill="#439FF4"/>
</svg>
