<svg width="28" height="28" viewBox="0 0 28 28" fill="none" xmlns="http://www.w3.org/2000/svg">
<g clip-path="url(#clip0)">
<path d="M14 27.999C21.732 27.999 28 21.731 28 13.999C28 6.26704 21.732 -0.000976562 14 -0.000976562C6.26801 -0.000976562 0 6.26704 0 13.999C0 21.731 6.26801 27.999 14 27.999Z" fill="#007AB9"/>
<path d="M22.3646 15.1264V20.8983H19.0182V15.5133C19.0182 14.1611 18.535 13.2377 17.3234 13.2377C16.3988 13.2377 15.8495 13.8594 15.6069 14.4613C15.5188 14.6765 15.4961 14.9752 15.4961 15.2769V20.8981H12.1494C12.1494 20.8981 12.1944 11.7775 12.1494 10.8334H15.4963V12.2597C15.4896 12.2709 15.4801 12.2819 15.4741 12.2926H15.4963V12.2597C15.9411 11.5754 16.7342 10.5971 18.5123 10.5971C20.714 10.5971 22.3646 12.0356 22.3646 15.1264ZM8.64857 5.98193C7.50382 5.98193 6.75488 6.73337 6.75488 7.72064C6.75488 8.68695 7.48211 9.4601 8.60465 9.4601H8.62636C9.79357 9.4601 10.5193 8.68695 10.5193 7.72064C10.4971 6.73337 9.79356 5.98193 8.64857 5.98193ZM6.95378 20.8983H10.2992V10.8334H6.95378V20.8983Z" fill="#F1F2F2"/>
</g>
<defs>
<clipPath id="clip0">
<rect width="28" height="28" fill="white"/>
</clipPath>
</defs>
</svg>
