<svg width="47" height="13" viewBox="0 0 47 13" fill="none" xmlns="http://www.w3.org/2000/svg">
<path d="M0.504 0.799999H2.584V10.24H8.44V12H0.504V0.799999ZM15.111 12.16C13.9697 12.16 12.9403 11.9147 12.023 11.424C11.1057 10.9227 10.3857 10.2347 9.863 9.36C9.34033 8.47467 9.079 7.488 9.079 6.4C9.079 5.312 9.34033 4.33067 9.863 3.456C10.3857 2.57067 11.1057 1.88267 12.023 1.392C12.9403 0.890666 13.9697 0.639999 15.111 0.639999C16.2523 0.639999 17.2817 0.890666 18.199 1.392C19.1163 1.88267 19.8363 2.56533 20.359 3.44C20.8817 4.31467 21.143 5.30133 21.143 6.4C21.143 7.49867 20.8817 8.48533 20.359 9.36C19.8363 10.2347 19.1163 10.9227 18.199 11.424C17.2817 11.9147 16.2523 12.16 15.111 12.16ZM15.111 10.336C15.8577 10.336 16.5297 10.1707 17.127 9.84C17.7243 9.49867 18.1937 9.02933 18.535 8.432C18.8763 7.824 19.047 7.14667 19.047 6.4C19.047 5.65333 18.8763 4.98133 18.535 4.384C18.1937 3.776 17.7243 3.30667 17.127 2.976C16.5297 2.63467 15.8577 2.464 15.111 2.464C14.3643 2.464 13.6923 2.63467 13.095 2.976C12.4977 3.30667 12.0283 3.776 11.687 4.384C11.3457 4.98133 11.175 5.65333 11.175 6.4C11.175 7.14667 11.3457 7.824 11.687 8.432C12.0283 9.02933 12.4977 9.49867 13.095 9.84C13.6923 10.1707 14.3643 10.336 15.111 10.336ZM30.9958 6.272H32.9638V10.736C32.3878 11.1947 31.7158 11.5467 30.9478 11.792C30.1798 12.0373 29.3904 12.16 28.5798 12.16C27.4384 12.16 26.4091 11.9147 25.4918 11.424C24.5744 10.9227 23.8544 10.2347 23.3318 9.36C22.8091 8.48533 22.5478 7.49867 22.5478 6.4C22.5478 5.30133 22.8091 4.31467 23.3318 3.44C23.8544 2.56533 24.5744 1.88267 25.4918 1.392C26.4198 0.890666 27.4598 0.639999 28.6118 0.639999C29.5504 0.639999 30.4038 0.794666 31.1718 1.104C31.9398 1.41333 32.5851 1.86667 33.1078 2.464L31.7958 3.744C30.9424 2.89067 29.9131 2.464 28.7078 2.464C27.9184 2.464 27.2144 2.62933 26.5958 2.96C25.9878 3.29067 25.5078 3.75467 25.1558 4.352C24.8144 4.94933 24.6438 5.632 24.6438 6.4C24.6438 7.14667 24.8144 7.81867 25.1558 8.416C25.5078 9.01333 25.9878 9.48267 26.5958 9.824C27.2144 10.1653 27.9131 10.336 28.6918 10.336C29.5664 10.336 30.3344 10.144 30.9958 9.76V6.272ZM40.9391 12.16C39.7978 12.16 38.7685 11.9147 37.8511 11.424C36.9338 10.9227 36.2138 10.2347 35.6911 9.36C35.1685 8.47467 34.9071 7.488 34.9071 6.4C34.9071 5.312 35.1685 4.33067 35.6911 3.456C36.2138 2.57067 36.9338 1.88267 37.8511 1.392C38.7685 0.890666 39.7978 0.639999 40.9391 0.639999C42.0805 0.639999 43.1098 0.890666 44.0271 1.392C44.9445 1.88267 45.6645 2.56533 46.1871 3.44C46.7098 4.31467 46.9711 5.30133 46.9711 6.4C46.9711 7.49867 46.7098 8.48533 46.1871 9.36C45.6645 10.2347 44.9445 10.9227 44.0271 11.424C43.1098 11.9147 42.0805 12.16 40.9391 12.16ZM40.9391 10.336C41.6858 10.336 42.3578 10.1707 42.9551 9.84C43.5525 9.49867 44.0218 9.02933 44.3631 8.432C44.7045 7.824 44.8751 7.14667 44.8751 6.4C44.8751 5.65333 44.7045 4.98133 44.3631 4.384C44.0218 3.776 43.5525 3.30667 42.9551 2.976C42.3578 2.63467 41.6858 2.464 40.9391 2.464C40.1925 2.464 39.5205 2.63467 38.9231 2.976C38.3258 3.30667 37.8565 3.776 37.5151 4.384C37.1738 4.98133 37.0031 5.65333 37.0031 6.4C37.0031 7.14667 37.1738 7.824 37.5151 8.432C37.8565 9.02933 38.3258 9.49867 38.9231 9.84C39.5205 10.1707 40.1925 10.336 40.9391 10.336Z" fill="#439FF4"/>
</svg>
