<svg width="156" height="51" viewBox="0 0 156 51" fill="none" xmlns="http://www.w3.org/2000/svg">
<path d="M63.5039 13.2922C65.1024 14.395 65.1024 15.7734 65.1024 16.7383V33.969C65.1024 34.9339 65.1024 36.3124 63.5039 37.4151H70.2453C68.6468 36.3124 68.6468 34.9339 68.6468 33.969V16.7383C68.6468 15.7734 68.6468 14.395 70.2453 13.2922H63.5039ZM69.3418 24.9057L75.5273 33.2453C77.2648 35.6232 78.6547 37.7253 81.4 37.5875L85.1182 37.4151C82.0949 35.6921 80.3227 33.5555 77.1605 29.3857L73.1643 24.1475L81.6085 13.2922H74.9365C75.5273 13.5679 76.1875 14.1537 76.1875 14.9808C76.1875 15.67 75.701 16.4282 74.7628 17.6688L69.3418 24.9057Z" fill="#262626"/>
<path d="M93.3872 13.2922C94.812 13.947 94.3255 15.2565 94.1865 15.6011L87.2365 33.0386C86.5763 34.6927 85.8813 36.2435 84.0743 37.4151H90.642C89.0088 36.2779 89.3215 34.865 89.808 33.6589L91.9972 28.2484H101.345L103.986 34.7272C104.299 35.5198 104.577 36.6915 102.943 37.4151H110.415C108.712 36.5192 108.017 35.2096 107.461 33.8656L99.0862 13.2922H93.3872ZM96.6537 16.4282L100.441 25.9395H92.9007L96.6537 16.4282Z" fill="#262626"/>
<path d="M115.078 13.2922C116.711 14.2571 116.399 15.3943 116.19 16.8762L113.758 33.4866C113.48 35.4508 112.785 36.5881 111.881 37.4151H117.928C116.051 36.4502 116.329 34.8305 116.538 33.3832L118.866 16.9796L125.677 34.0379C126.128 35.1752 126.684 36.209 127.518 36.9327L128.491 37.7598L137.075 16.9106L138.916 33.1075C139.09 34.6927 139.368 36.2779 137.665 37.4151H144.407C143.086 36.5536 142.843 35.3819 142.704 34.3481L140.445 16.7728C140.167 14.4984 140.897 13.7057 141.557 13.2922H135.546C135.407 14.0159 135.163 14.9119 134.816 15.7045L128.283 31.3155L121.263 13.2922H115.078Z" fill="#262626"/>
<path d="M149.095 13.2922C150.694 14.395 150.694 15.7734 150.694 16.7383V33.969C150.694 34.9339 150.694 36.3124 149.095 37.4151H155.837C154.238 36.3124 154.238 34.9339 154.238 33.969V16.7383C154.238 15.7734 154.238 14.395 155.837 13.2922H149.095Z" fill="#262626"/>
<path fill-rule="evenodd" clip-rule="evenodd" d="M25.9005 20.363C26.6103 18.2408 27.312 15.3306 27.312 12.136C27.312 8.94135 26.6103 6.03115 25.9005 3.90895C25.7652 3.50462 25.6301 3.13009 25.5 2.78893C25.37 3.13009 25.2349 3.50462 25.0996 3.90895C24.3897 6.03115 23.6881 8.94135 23.6881 12.136C23.6881 15.3306 24.3897 18.2408 25.0996 20.363C25.2349 20.7673 25.37 21.1419 25.5 21.483C25.6301 21.1419 25.7652 20.7673 25.9005 20.363ZM26.1154 22.9625C25.7553 23.7999 25.5 24.272 25.5 24.272C25.5 24.272 25.2447 23.7999 24.8847 22.9625C24.0231 20.9587 22.5615 16.8629 22.5615 12.136C22.5615 7.40901 24.0231 3.31324 24.8847 1.30947C25.2447 0.472036 25.5 0 25.5 0C25.5 0 25.7553 0.472036 26.1154 1.30947C26.977 3.31324 28.4385 7.40901 28.4385 12.136C28.4385 16.8629 26.977 20.9587 26.1154 22.9625Z" fill="#FE5757"/>
<path fill-rule="evenodd" clip-rule="evenodd" d="M30.3802 27.2147C32.2553 28.4467 34.8971 29.8747 37.9965 30.7015C41.0958 31.5283 44.1008 31.6068 46.3435 31.4733C46.7707 31.4479 47.1691 31.4149 47.5337 31.3781C47.2364 31.1648 46.908 30.9379 46.5507 30.7032C44.6756 29.4712 42.0338 28.0432 38.9344 27.2164C35.8351 26.3896 32.8301 26.3111 30.5874 26.4445C30.1602 26.47 29.7618 26.503 29.3972 26.5398C29.6945 26.7531 30.0229 26.98 30.3802 27.2147ZM27.8026 26.7486C27.0833 26.1856 26.6914 25.8179 26.6914 25.8179C26.6914 25.8179 27.2155 25.6946 28.1211 25.565C30.2881 25.2551 34.64 24.9096 39.226 26.133C43.812 27.3564 47.4073 29.8221 49.1283 31.1693C49.8476 31.7323 50.2395 32.1 50.2395 32.1C50.2395 32.1 49.7154 32.2233 48.8098 32.3528C46.6428 32.6628 42.2909 33.0083 37.7049 31.7849C33.1189 30.5615 29.5236 28.0958 27.8026 26.7486Z" fill="#FE5757"/>
<path fill-rule="evenodd" clip-rule="evenodd" d="M30.5873 24.5554C32.8299 24.6889 35.8349 24.6104 38.9343 23.7836C42.0336 22.9568 44.6754 21.5288 46.5506 20.2968C46.9078 20.0621 47.2362 19.8352 47.5335 19.6218C47.1689 19.5851 46.7706 19.5521 46.3433 19.5266C44.1007 19.3932 41.0957 19.4716 37.9963 20.2985C34.897 21.1253 32.2552 22.5533 30.38 23.7853C30.0227 24.02 29.6944 24.2469 29.397 24.4602C29.7617 24.497 30.16 24.53 30.5873 24.5554ZM28.121 25.4349C27.2153 25.3054 26.6913 25.1821 26.6913 25.1821C26.6913 25.1821 27.0832 24.8144 27.8024 24.2513C29.5234 22.9042 33.1188 20.4385 37.7047 19.2151C42.2907 17.9917 46.6426 18.3372 48.8096 18.6471C49.7153 18.7767 50.2393 18.9 50.2393 18.9C50.2393 18.9 49.8474 19.2677 49.1282 19.8307C47.4071 21.1779 43.8118 23.6436 39.2258 24.867C34.6398 26.0904 30.288 25.7449 28.121 25.4349Z" fill="#FE5757"/>
<path fill-rule="evenodd" clip-rule="evenodd" d="M28.9019 21.6172C30.7441 20.3368 33.0522 18.4194 34.968 15.8567C36.8839 13.2941 38.0663 10.5424 38.7695 8.41805C38.9035 8.01331 39.0197 7.63252 39.12 7.28156C38.8111 7.47792 38.4781 7.69803 38.1271 7.94197C36.2849 9.22236 33.9768 11.1398 32.061 13.7024C30.1451 16.2651 28.9627 19.0167 28.2595 21.1411C28.1255 21.5459 28.0093 21.9266 27.909 22.2776C28.2179 22.0812 28.5509 21.8611 28.9019 21.6172ZM27.5154 23.8302C26.7243 24.2879 26.2365 24.5148 26.2365 24.5148C26.2365 24.5148 26.3148 23.9844 26.5281 23.0986C27.0387 20.979 28.3225 16.8246 31.1573 13.0327C33.9921 9.24086 37.6208 6.82415 39.5136 5.72895C40.3047 5.27122 40.7925 5.04432 40.7925 5.04432C40.7925 5.04432 40.7142 5.57474 40.5009 6.46057C39.9903 8.58014 38.7065 12.7345 35.8717 16.5264C33.0369 20.3183 29.4082 22.735 27.5154 23.8302Z" fill="#FE5757"/>
<path fill-rule="evenodd" clip-rule="evenodd" d="M5.42058 10.95L5.3551 11.4533L4.89698 11.676L4.48165 10.8289L5.42058 10.95ZM6.32034 12.1434C6.46082 12.3798 6.63046 12.655 6.82927 12.9605C7.51418 14.0132 8.54237 15.4216 9.91383 16.8431C10.1089 17.0453 10.1024 17.3666 9.89933 17.5608C9.69628 17.755 9.37357 17.7485 9.17853 17.5463C7.75203 16.0678 6.68469 14.6054 5.97354 13.5124C5.61771 12.9655 5.35032 12.51 5.1711 12.1895C5.08148 12.0293 5.01385 11.9027 4.96818 11.8153C4.94535 11.7716 4.928 11.7377 4.91614 11.7143C4.91021 11.7025 4.90564 11.6934 4.90245 11.687L4.89869 11.6794L4.89758 11.6772L4.89708 11.6762C4.89703 11.6761 4.89698 11.676 5.3551 11.4533C5.42058 10.95 5.42068 10.95 5.4208 10.95L5.42185 10.9501L5.42418 10.9504L5.43199 10.9515C5.43859 10.9524 5.44796 10.9537 5.46002 10.9554C5.48416 10.9588 5.51911 10.9638 5.56428 10.9708C5.65462 10.9847 5.78593 11.0061 5.95361 11.0365C6.28892 11.0974 6.77008 11.1945 7.36036 11.3405C8.5401 11.6323 10.1602 12.1204 11.925 12.9067C12.182 13.0213 12.2971 13.3215 12.1821 13.5774C12.0671 13.8332 11.7655 13.9478 11.5085 13.8333C9.81068 13.0768 8.24997 12.6065 7.11454 12.3257C6.81897 12.2526 6.55253 12.1924 6.32034 12.1434Z" fill="#FE5757"/>
<path fill-rule="evenodd" clip-rule="evenodd" d="M46.8843 11.4597L46.3829 11.2042L46.3211 10.6468L47.3609 10.5326L46.8843 11.4597ZM45.3021 11.9464C45.0028 12.0037 44.652 12.0768 44.2587 12.1687C42.9036 12.4854 41.0489 13.0249 39.0525 13.915C38.7686 14.0416 38.4353 13.9151 38.3082 13.6324C38.1811 13.3497 38.3081 13.0179 38.5921 12.8914C40.6686 11.9656 42.5942 11.4056 44.0012 11.0768C44.7053 10.9122 45.2809 10.8052 45.6825 10.7391C45.8833 10.7061 46.0407 10.6832 46.149 10.6685C46.2032 10.6612 46.2451 10.6559 46.274 10.6523C46.2885 10.6506 46.2997 10.6492 46.3076 10.6483L46.3169 10.6473L46.3197 10.6469L46.3209 10.6468C46.321 10.6468 46.3211 10.6468 46.3829 11.2042C46.8843 11.4597 46.8843 11.4598 46.8842 11.4599L46.8837 11.461L46.8825 11.4633L46.8785 11.471C46.8751 11.4775 46.8703 11.4867 46.864 11.4985C46.8514 11.5223 46.8331 11.5566 46.809 11.6007C46.7608 11.6891 46.6895 11.8171 46.5951 11.9794C46.4065 12.3039 46.1256 12.766 45.753 13.3228C45.0082 14.4356 43.8942 15.9313 42.4147 17.4655C42.1992 17.6889 41.8426 17.6962 41.6182 17.4816C41.3938 17.2671 41.3866 16.9121 41.602 16.6887C43.0255 15.2127 44.0987 13.7719 44.8155 12.7008C45.0021 12.422 45.1643 12.1686 45.3021 11.9464Z" fill="#FE5757"/>
<path fill-rule="evenodd" clip-rule="evenodd" d="M28.1097 29.9496C28.7402 32.0965 29.8282 34.8865 31.6557 37.5123C33.4831 40.1382 35.7246 42.1324 37.5221 43.4743C37.8646 43.7299 38.1899 43.9611 38.4919 44.1678C38.4037 43.8137 38.3005 43.4292 38.1804 43.0201C37.5499 40.8732 36.4619 38.0833 34.6344 35.4574C32.8069 32.8315 30.5654 30.8373 28.7679 29.4955C28.4255 29.2398 28.1001 29.0086 27.7981 28.8019C27.8864 29.1561 27.9895 29.5406 28.1097 29.9496ZM26.446 27.9348C26.2629 27.0423 26.2027 26.5095 26.2027 26.5095C26.2027 26.5095 26.6826 26.7528 27.4576 27.2369C29.312 28.3954 32.8563 30.9332 35.5604 34.8186C38.2644 38.704 39.406 42.8994 39.8441 45.0349C40.0271 45.9275 40.0873 46.4602 40.0873 46.4602C40.0873 46.4602 39.6075 46.217 38.8325 45.7328C36.978 44.5743 33.4337 42.0365 30.7297 38.1511C28.0256 34.2657 26.884 30.0704 26.446 27.9348Z" fill="#FE5757"/>
<path fill-rule="evenodd" clip-rule="evenodd" d="M25.9005 47.0911C26.6103 44.9689 27.312 42.0587 27.312 38.864C27.312 35.6694 26.6103 32.7592 25.9005 30.637C25.7652 30.2327 25.6301 29.8581 25.5 29.517C25.37 29.8581 25.2349 30.2327 25.0996 30.637C24.3897 32.7592 23.6881 35.6694 23.6881 38.864C23.6881 42.0587 24.3897 44.9689 25.0996 47.0911C25.2349 47.4954 25.37 47.8699 25.5 48.2111C25.6301 47.8699 25.7652 47.4954 25.9005 47.0911ZM26.1154 49.6905C25.7553 50.528 25.5 51 25.5 51C25.5 51 25.2447 50.528 24.8847 49.6905C24.0231 47.6868 22.5615 43.591 22.5615 38.864C22.5615 34.1371 24.0231 30.0413 24.8847 28.0375C25.2447 27.2001 25.5 26.7281 25.5 26.7281C25.5 26.7281 25.7553 27.2001 26.1154 28.0375C26.977 30.0413 28.4385 34.1371 28.4385 38.864C28.4385 43.591 26.977 47.6868 26.1154 49.6905Z" fill="#FE5757"/>
<path fill-rule="evenodd" clip-rule="evenodd" d="M4.44925 20.2969C6.32442 21.5289 8.96623 22.9569 12.0656 23.7837C15.1649 24.6105 18.1699 24.689 20.4126 24.5555C20.8398 24.5301 21.2382 24.4971 21.6028 24.4603C21.3055 24.247 20.9771 24.0201 20.6198 23.7854C18.7447 22.5534 16.1028 21.1254 13.0035 20.2986C9.90417 19.4717 6.89916 19.3933 4.65652 19.5267C4.22926 19.5521 3.83092 19.5852 3.46628 19.6219C3.7636 19.8353 4.09199 20.0622 4.44925 20.2969ZM1.87167 19.8308C1.15241 19.2678 0.760527 18.9001 0.760527 18.9001C0.760527 18.9001 1.28456 18.7768 2.19021 18.6472C4.35721 18.3373 8.7091 17.9918 13.2951 19.2152C17.8811 20.4386 21.4764 22.9042 23.1974 24.2514C23.9167 24.8145 24.3086 25.1821 24.3086 25.1821C24.3086 25.1821 23.7845 25.3055 22.8789 25.435C20.7119 25.745 16.36 26.0905 11.774 24.8671C7.18801 23.6436 3.59269 21.178 1.87167 19.8308Z" fill="#FE5757"/>
<path fill-rule="evenodd" clip-rule="evenodd" d="M4.65685 31.4733C6.89949 31.6067 9.9045 31.5283 13.0038 30.7014C16.1032 29.8746 18.745 28.4466 20.6202 27.2147C20.9774 26.9799 21.3058 26.753 21.6031 26.5397C21.2385 26.5029 20.8402 26.4699 20.4129 26.4445C18.1702 26.3111 15.1652 26.3895 12.0659 27.2163C8.96656 28.0432 6.32475 29.4711 4.44958 30.7031C4.09232 30.9378 3.76393 31.1647 3.46661 31.3781C3.83124 31.4148 4.22958 31.4479 4.65685 31.4733ZM2.19054 32.3528C1.28488 32.2232 0.760856 32.0999 0.760856 32.0999C0.760856 32.0999 1.15274 31.7322 1.872 31.1692C3.59302 29.822 7.18834 27.3564 11.7743 26.1329C16.3603 24.9095 20.7122 25.255 22.8792 25.565C23.7849 25.6945 24.3089 25.8179 24.3089 25.8179C24.3089 25.8179 23.917 26.1855 23.1977 26.7486C21.4767 28.0958 17.8814 30.5614 13.2954 31.7848C8.70942 33.0083 4.35754 32.6627 2.19054 32.3528Z" fill="#FE5757"/>
<path fill-rule="evenodd" clip-rule="evenodd" d="M12.8731 43.0579C14.7153 41.7775 17.0234 39.8601 18.9392 37.2974C20.855 34.7348 22.0375 31.9831 22.7407 29.8588C22.8747 29.454 22.9909 29.0732 23.0912 28.7223C22.7823 28.9186 22.4492 29.1387 22.0983 29.3827C20.2561 30.6631 17.948 32.5805 16.0322 35.1431C14.1163 37.7058 12.9339 40.4574 12.2307 42.5818C12.0967 42.9866 11.9805 43.3674 11.8802 43.7183C12.1891 43.522 12.5221 43.3018 12.8731 43.0579ZM11.4866 45.2709C10.6955 45.7287 10.2077 45.9556 10.2077 45.9556C10.2077 45.9556 10.286 45.4251 10.4993 44.5393C11.0099 42.4197 12.2937 38.2653 15.1285 34.4735C17.9633 30.6816 21.592 28.2649 23.4848 27.1696C24.2758 26.7119 24.7637 26.485 24.7637 26.485C24.7637 26.485 24.6854 27.0154 24.472 27.9013C23.9615 30.0208 22.6777 34.1752 19.8429 37.9671C17.0081 41.759 13.3794 44.1757 11.4866 45.2709Z" fill="#FE5757"/>
<path fill-rule="evenodd" clip-rule="evenodd" d="M41.183 33.5852C41.4085 33.3719 41.7651 33.381 41.9793 33.6055C43.5194 35.2194 44.6719 36.8071 45.4398 37.9918C45.8241 38.5846 46.1128 39.0777 46.3064 39.4243C46.4032 39.5976 46.4762 39.7345 46.5255 39.8289C46.5502 39.8762 46.569 39.9128 46.5818 39.9382C46.5882 39.9509 46.5931 39.9607 46.5966 39.9676L46.6006 39.9758L46.6018 39.9783L46.6024 39.9794C46.6024 39.9795 46.6025 39.9796 46.0963 40.2256C46.024 40.7818 46.0239 40.7818 46.0237 40.7818L46.0225 40.7816L46.0199 40.7812L46.0109 40.78C46.0033 40.779 45.9925 40.7775 45.9786 40.7756C45.9508 40.7716 45.9106 40.7658 45.8585 40.7577C45.7545 40.7417 45.6033 40.7169 45.4103 40.6817C45.0245 40.6111 44.4712 40.4984 43.7939 40.3287C42.4402 39.9894 40.5855 39.421 38.5787 38.503C38.296 38.3737 38.1722 38.0408 38.302 37.7593C38.4319 37.4779 38.7663 37.3545 39.049 37.4839C40.979 38.3667 42.7656 38.9143 44.0689 39.241C44.4289 39.3312 44.7516 39.4045 45.0298 39.4632C44.8807 39.2123 44.7019 38.9218 44.4933 38.6C43.7538 37.4592 42.6436 35.93 41.1626 34.3781C40.9484 34.1535 40.9575 33.7986 41.183 33.5852ZM46.0963 40.2256L46.024 40.7818L47.0614 40.9156L46.6025 39.9796L46.0963 40.2256Z" fill="#FE5757"/>
<path fill-rule="evenodd" clip-rule="evenodd" d="M12.5735 37.5083C12.6991 37.7917 12.5702 38.1227 12.2856 38.2478C10.2399 39.1465 8.34984 39.6907 6.97058 40.0106C6.28044 40.1706 5.7168 40.2749 5.32374 40.3393C5.12718 40.3715 4.97316 40.3938 4.86719 40.4081C4.8142 40.4153 4.77322 40.4205 4.74492 40.4239C4.73077 40.4257 4.71979 40.427 4.71207 40.4279L4.70295 40.4289L4.70023 40.4292L4.69901 40.4293C4.69888 40.4294 4.69877 40.4294 4.637 39.872C4.13558 39.6164 4.13564 39.6163 4.1357 39.6162L4.13625 39.6152L4.13748 39.6128L4.14165 39.6048C4.14518 39.598 4.15021 39.5884 4.15676 39.576C4.16986 39.5513 4.18899 39.5156 4.21414 39.4695C4.26445 39.3774 4.33888 39.2441 4.43735 39.0751C4.63426 38.7373 4.92755 38.2568 5.31664 37.6793C6.09427 36.5251 7.25764 34.9788 8.80281 33.4078C9.02046 33.1865 9.37709 33.1828 9.59935 33.3995C9.82161 33.6162 9.82535 33.9712 9.60769 34.1925C8.12165 35.7034 7.0009 37.1929 6.2522 38.3041C6.0454 38.6111 5.86722 38.8888 5.7178 39.1297C6.00535 39.0747 6.34036 39.0051 6.715 38.9182C8.04312 38.6102 9.86365 38.0858 11.8308 37.2216C12.1154 37.0966 12.4479 37.2249 12.5735 37.5083ZM4.637 39.872L4.13558 39.6164L3.65897 40.5436L4.69877 40.4294L4.637 39.872Z" fill="#FE5757"/>
<path fill-rule="evenodd" clip-rule="evenodd" d="M12.8201 7.98003C13.4506 10.1269 14.5386 12.9169 16.3661 15.5428C18.1936 18.1686 20.4351 20.1628 22.2326 21.5047C22.575 21.7603 22.9004 21.9916 23.2024 22.1982C23.1141 21.8441 23.011 21.4596 22.8908 21.0506C22.2603 18.9037 21.1723 16.1137 19.3448 13.4878C17.5174 10.862 15.2759 8.86776 13.4784 7.52592C13.1359 7.27027 12.8106 7.03905 12.5086 6.83237C12.5968 7.18652 12.7 7.57101 12.8201 7.98003ZM11.1564 5.96524C10.9733 5.07272 10.9132 4.53996 10.9132 4.53996C10.9132 4.53996 11.393 4.7832 12.168 5.26736C14.0225 6.42583 17.5668 8.96363 20.2708 12.849C22.9749 16.7344 24.1165 20.9298 24.5545 23.0654C24.7376 23.9579 24.7978 24.4906 24.7978 24.4906C24.7978 24.4906 24.3179 24.2474 23.5429 23.7632C21.6885 22.6048 18.1442 20.067 15.4401 16.1816C12.7361 12.2962 11.5945 8.10082 11.1564 5.96524Z" fill="#FE5757"/>
</svg>
