<svg width="16" height="16" viewBox="0 0 16 16" fill="none" xmlns="http://www.w3.org/2000/svg">
<g clip-path="url(#clip0)">
<path d="M15.8037 14.888L12.4468 11.5093C12.1634 11.8363 11.8582 12.1632 11.5312 12.4248L14.8882 15.8036C15.019 15.9344 15.1934 15.9998 15.3459 15.9998C15.4985 15.9998 15.6729 15.9344 15.8037 15.8036C16.0653 15.5638 16.0653 15.1496 15.8037 14.888Z" fill="white"/>
<path d="M12.534 11.5967C13.5586 10.376 14.1689 8.78473 14.1689 7.08447C14.1689 3.18258 10.9864 0 7.08447 0C3.18258 0 0 3.18258 0 7.08447C0 10.9864 3.18258 14.1689 7.08447 14.1689C8.80651 14.1689 10.376 13.5586 11.5967 12.534C11.9455 12.2507 12.2507 11.9455 12.534 11.5967ZM1.3079 7.08447C1.3079 3.90189 3.90189 1.3079 7.08447 1.3079C10.267 1.3079 12.861 3.90189 12.861 7.08447C12.861 10.267 10.267 12.861 7.08447 12.861C3.90189 12.861 1.3079 10.267 1.3079 7.08447Z" fill="white"/>
</g>
<defs>
<clipPath id="clip0">
<rect width="16" height="16" fill="white"/>
</clipPath>
</defs>
</svg>
