<svg width="22" height="22" viewBox="0 0 22 22" fill="none" xmlns="http://www.w3.org/2000/svg">
<path d="M16.7356 0C15.3297 0 14.0077 0.547871 13.0134 1.54218L8.91397 5.64159C9.22727 5.59785 9.54027 5.55035 9.86053 5.55035C10.7435 5.55035 11.6088 5.7219 12.4043 6.03998L14.9577 3.4865C15.4331 3.01182 16.0642 2.74998 16.7356 2.74998C18.122 2.74998 19.2499 3.87789 19.2499 5.26432C19.2499 5.93573 18.9881 6.56681 18.5134 7.04214L13.9171 11.6385C12.9664 12.5878 11.3122 12.5885 10.3615 11.6391L8.41846 13.5848C9.41213 14.5778 10.7341 15.125 12.1393 15.125C13.5452 15.125 14.8671 14.5771 15.8615 13.5828L20.4578 8.9865C21.4521 7.9922 22 6.6702 22 5.26432C21.9999 2.36128 19.6386 0 16.7356 0V0Z" fill="#439FF4"/>
<path d="M9.57154 15.9841L7.04218 18.5135C6.56685 18.9881 5.93573 19.25 5.26436 19.25C3.87794 19.25 2.75002 18.1221 2.75002 16.7356C2.75002 16.0643 3.01186 15.4332 3.48655 14.9578L8.08287 10.3615C9.03357 9.41217 10.6879 9.41149 11.6385 10.3608L13.5816 8.41513C11.5936 6.42916 8.12721 6.42852 6.13855 8.41713L1.54218 13.0135C0.547828 14.0078 0 15.3297 0 16.7356C0 19.6387 2.36128 21.9999 5.26432 21.9999C6.6702 21.9999 7.99215 21.4521 8.9865 20.4577L13.0315 16.4127C12.7362 16.4524 12.4424 16.4999 12.1393 16.4999C11.2427 16.5 10.3743 16.3207 9.57154 15.9841Z" fill="#439FF4"/>
</svg>
