<svg width="19" height="12" viewBox="0 0 19 12" fill="none" xmlns="http://www.w3.org/2000/svg">
<path fill-rule="evenodd" clip-rule="evenodd" d="M13.21 0.941728L14.4064 1.63761C16.1298 2.77935 17.5687 4.35028 18.74 5.77121C18.6703 5.84489 18.5996 5.91984 18.5278 5.99589C16.4197 8.22963 13.4113 11.4174 9.37 11.4174C7.88502 11.4174 6.63011 11.0757 5.50069 10.5049L4.32108 9.79647C2.88335 8.79982 1.61253 7.43738 0.253662 5.98053C0.169466 5.89026 0.0849325 5.79963 0 5.7087C3.27532 2.17514 5.94409 0 9.37 0C10.7713 0 12.0471 0.362523 13.21 0.941728ZM13.1566 5.70826C13.1566 7.79836 11.4622 9.49272 9.37212 9.49272C7.28202 9.49272 5.58767 7.79836 5.58767 5.70826C5.58767 3.61817 7.28202 1.92381 9.37212 1.92381C11.4622 1.92381 13.1566 3.61817 13.1566 5.70826ZM11.5649 5.34562C11.332 5.57015 11.0152 5.70824 10.6662 5.70824C9.95098 5.70824 9.37119 5.12846 9.37119 4.41326C9.37119 4.06447 9.50908 3.74789 9.73332 3.51505C9.61569 3.49582 9.49496 3.48581 9.3719 3.48581C8.14448 3.48581 7.14946 4.48083 7.14946 5.70825C7.14946 6.93566 8.14448 7.93068 9.3719 7.93068C10.5993 7.93068 11.5943 6.93566 11.5943 5.70825C11.5943 5.58476 11.5843 5.46362 11.5649 5.34562Z" fill="#2A4B5D"/>
</svg>
