<svg width="10" height="16" viewBox="0 0 10 16" fill="none" xmlns="http://www.w3.org/2000/svg">
<path d="M2.86093 10.5748V9.79073C2.86093 9.11258 3.00574 8.52274 3.29536 8.02119C3.58499 7.51965 4.11479 6.98631 4.88477 6.42119C5.62649 5.89139 6.11391 5.46049 6.34702 5.12848C6.5872 4.79647 6.70728 4.42561 6.70728 4.01589C6.70728 3.55673 6.53775 3.20706 6.19868 2.96689C5.8596 2.72671 5.38631 2.60662 4.77881 2.60662C3.71921 2.60662 2.51126 2.95276 1.15497 3.64503L0 1.3245C1.57528 0.441501 3.24592 0 5.01192 0C6.46711 0 7.62208 0.349669 8.47682 1.04901C9.33863 1.74834 9.76954 2.68079 9.76954 3.84636C9.76954 4.6234 9.59294 5.29448 9.23973 5.8596C8.88653 6.42472 8.21545 7.06049 7.22649 7.76689C6.54834 8.26843 6.11744 8.64989 5.93377 8.91126C5.75717 9.17263 5.66887 9.51523 5.66887 9.93907V10.5748H2.86093ZM2.52185 14.1987C2.52185 13.6053 2.68079 13.1567 2.99868 12.853C3.31656 12.5492 3.77925 12.3974 4.38675 12.3974C4.97307 12.3974 5.42517 12.5528 5.74305 12.8636C6.06799 13.1744 6.23046 13.6194 6.23046 14.1987C6.23046 14.7567 6.06799 15.1982 5.74305 15.5232C5.4181 15.8411 4.966 16 4.38675 16C3.79338 16 3.33422 15.8446 3.00927 15.5338C2.68433 15.2159 2.52185 14.7709 2.52185 14.1987Z" fill="#439FF4"/>
</svg>
