<svg width="16" height="16" viewBox="0 0 16 16" fill="none" xmlns="http://www.w3.org/2000/svg">
<g clip-path="url(#clip0)">
<path d="M15.804 14.8883L12.447 11.5095C12.1636 11.8365 11.8585 12.1635 11.5315 12.4251L14.8884 15.8038C15.0192 15.9346 15.1936 16 15.3462 16C15.4988 16 15.6732 15.9346 15.8039 15.8038C16.0656 15.564 16.0656 15.1498 15.804 14.8883Z" fill="#439FF4"/>
<path d="M12.534 11.5967C13.5586 10.376 14.1689 8.78473 14.1689 7.08447C14.1689 3.18258 10.9864 0 7.08447 0C3.18258 0 0 3.18258 0 7.08447C0 10.9864 3.18258 14.1689 7.08447 14.1689C8.80651 14.1689 10.376 13.5586 11.5967 12.534C11.9455 12.2507 12.2507 11.9455 12.534 11.5967ZM1.3079 7.08447C1.3079 3.90189 3.90189 1.3079 7.08447 1.3079C10.267 1.3079 12.861 3.90189 12.861 7.08447C12.861 10.267 10.267 12.861 7.08447 12.861C3.90189 12.861 1.3079 10.267 1.3079 7.08447Z" fill="#439FF4"/>
</g>
<defs>
<clipPath id="clip0">
<rect width="16" height="16" fill="white"/>
</clipPath>
</defs>
</svg>
