<svg width="15" height="10" viewBox="0 0 15 10" fill="none" xmlns="http://www.w3.org/2000/svg">
<path d="M9.36512 9.80683C9.08879 10.0644 8.64077 10.0644 8.36444 9.80683C8.08811 9.54927 8.08811 9.13169 8.36444 8.87413L11.8138 5.65916L0.707214 5.50133C0.316639 5.50133 1.63317e-05 5.20622 1.63317e-05 4.84218C1.63317e-05 4.47814 0.31664 4.18302 0.707215 4.18302L11.8138 4.34085L8.36444 1.12585C8.08811 0.868297 8.08811 0.450712 8.36445 0.193158C8.64078 -0.0643892 9.08879 -0.0643857 9.36511 0.193166L13.9844 4.49865C14.2815 4.77554 14.2815 5.22445 13.9844 5.50133L9.36512 9.80683Z" fill="#334E68"/>
</svg>
