<svg width="14" height="14" viewBox="0 0 14 14" fill="none" xmlns="http://www.w3.org/2000/svg">
<path d="M0.196871 1.16792C-0.0656236 0.905422 -0.0656236 0.468543 0.196871 0.196871C0.468543 -0.0656236 0.896244 -0.0656236 1.16792 0.196871L6.9948 6.03354L12.8315 0.196871C13.094 -0.0656236 13.5308 -0.0656236 13.7927 0.196871C14.0644 0.468543 14.0644 0.906034 13.7927 1.16792L7.96584 6.99541L13.7927 12.8321C14.0644 13.0946 14.0644 13.5315 13.7927 13.8031C13.5302 14.0656 13.0934 14.0656 12.8315 13.8031L6.9948 7.96646L1.16792 13.8031C0.896244 14.0656 0.468543 14.0656 0.196871 13.8031C-0.0656236 13.5315 -0.0656236 13.094 0.196871 12.8321L6.02375 6.99541L0.196871 1.16792Z" fill="#50BFBF"/>
</svg>
