<svg width="16" height="16" viewBox="0 0 16 16" fill="none" xmlns="http://www.w3.org/2000/svg">
<path d="M14.2032 9.86109L13.0198 8.67775L7.69496 3.35311C6.71359 2.37909 5.12947 2.38203 4.15177 3.35972C3.17408 4.33741 3.17114 5.92154 4.14516 6.90291L9.4698 12.2291C9.68758 12.447 10.0408 12.447 10.2587 12.2291C10.4765 12.0112 10.4765 11.6581 10.2587 11.4402L4.9341 6.11397C4.38952 5.56939 4.38952 4.68662 4.9341 4.14205C5.47868 3.59747 6.36144 3.59747 6.90602 4.14205L12.2323 9.46669L13.4156 10.6499C14.396 11.6307 14.3956 13.2204 13.415 14.2007C12.4342 15.181 10.8446 15.1807 9.86421 14.2L8.87831 13.2137L3.35634 7.69172L2.96181 7.29732C1.58285 5.87524 1.60036 3.60972 3.00101 2.20895C4.40177 0.808312 6.66729 0.790796 8.08937 2.16976L14.0057 8.08626C14.1467 8.22711 14.3521 8.28211 14.5446 8.23055C14.7371 8.17898 14.8875 8.02869 14.9391 7.83614C14.9907 7.64359 14.9355 7.4383 14.7947 7.29732L8.87831 1.38094C7.02544 -0.463473 4.02929 -0.460043 2.18071 1.38866C0.33201 3.23723 0.328581 6.23339 2.17299 8.08626L8.08937 14.0026L9.07674 14.9889C10.5006 16.3566 12.7572 16.3338 14.1531 14.9375C15.5491 13.5412 15.5713 11.2846 14.2032 9.86109Z" fill="white"/>
</svg>
