<svg width="28" height="28" viewBox="0 0 28 28" fill="none" xmlns="http://www.w3.org/2000/svg">
<g clip-path="url(#clip0)">
<path d="M14 0.583252C6.265 0.583252 0 6.74325 0 14.3406C0 20.4201 4.011 25.5756 9.5725 27.3933C10.2725 27.5228 10.5292 27.0969 10.5292 26.7318C10.5292 26.4051 10.5175 25.5394 10.5117 24.3926C6.61733 25.2221 5.796 22.5469 5.796 22.5469C5.159 20.9591 4.2385 20.5344 4.2385 20.5344C2.97033 19.6816 4.3365 19.6991 4.3365 19.6991C5.74233 19.7948 6.48083 21.1166 6.48083 21.1166C7.72917 23.2201 9.758 22.6123 10.5583 22.2611C10.6843 21.3709 11.0448 20.7654 11.445 20.4213C8.33583 20.0771 5.068 18.8941 5.068 13.6231C5.068 12.1216 5.6105 10.8943 6.50883 9.93175C6.35133 9.58409 5.87883 8.18525 6.63133 6.29059C6.63133 6.29059 7.80383 5.92192 10.4813 7.70109C11.6013 7.39542 12.7913 7.24375 13.9813 7.23675C15.1713 7.24375 16.3613 7.39542 17.4813 7.70109C20.1413 5.92192 21.3138 6.29059 21.3138 6.29059C22.0663 8.18525 21.5938 9.58409 21.4538 9.93175C22.3463 10.8943 22.8888 12.1216 22.8888 13.6231C22.8888 18.9081 19.6163 20.0713 16.5013 20.4096C16.9913 20.8226 17.4463 21.6661 17.4463 22.9553C17.4463 24.7963 17.4288 26.2756 17.4288 26.7224C17.4288 27.0829 17.6738 27.5134 18.3913 27.3758C23.9925 25.5698 28 20.4108 28 14.3406C28 6.74325 21.7315 0.583252 14 0.583252Z" fill="#212121"/>
</g>
<defs>
<clipPath id="clip0">
<rect width="28" height="28" fill="white"/>
</clipPath>
</defs>
</svg>
