<svg width="22" height="22" viewBox="0 0 22 22" fill="none" xmlns="http://www.w3.org/2000/svg">
<path d="M20.1667 22V21.0833V11.9167H21.0833C21.6333 11.9167 22 12.2833 22 12.8333V21.0833C22 21.6333 21.6333 22 21.0833 22H20.1667ZM1.83333 21.0833V22H0.916667C0.366667 22 0 21.6333 0 21.0833V12.8333C0 12.2833 0.366667 11.9167 0.916667 11.9167H1.83333V21.0833ZM17.4167 0C17.9667 0 18.3333 0.366667 18.3333 0.916667V21.0833C18.3333 21.6333 17.9667 22 17.4167 22H11.9167V18.3333H10.0833V22H4.58333C4.03333 22 3.66667 21.6333 3.66667 21.0833V0.916667C3.66667 0.366667 4.03333 0 4.58333 0H17.4167ZM9.16667 15.5833V13.75H6.41667V15.5833H9.16667ZM9.16667 11.9167V10.0833H6.41667V11.9167H9.16667ZM9.16667 8.25V6.41667H6.41667V8.25H9.16667ZM9.16667 4.58333V2.75H6.41667V4.58333H9.16667ZM15.5833 15.5833V13.75H12.8333V15.5833H15.5833ZM15.5833 11.9167V10.0833H12.8333V11.9167H15.5833ZM15.5833 8.25V6.41667H12.8333V8.25H15.5833ZM15.5833 4.58333V2.75H12.8333V4.58333H15.5833Z" fill="#439FF4"/>
</svg>
