<svg width="14" height="14" viewBox="0 0 14 14" fill="none" xmlns="http://www.w3.org/2000/svg">
<path d="M7 0C3.14005 0 0 3.14005 0 7C0 10.86 3.14005 14 7 14C10.86 14 14 10.86 14 7C14 3.14005 10.86 0 7 0ZM9.57779 8.75288C9.80583 8.98103 9.80583 9.34964 9.57779 9.57779C9.46404 9.69154 9.31471 9.74869 9.16528 9.74869C9.01596 9.74869 8.86664 9.69154 8.75288 9.57779L7 7.8248L5.24712 9.57779C5.13336 9.69154 4.98404 9.74869 4.83472 9.74869C4.68529 9.74869 4.53596 9.69154 4.42221 9.57779C4.19417 9.34964 4.19417 8.98103 4.42221 8.75288L6.1752 7L4.42221 5.24712C4.19417 5.01897 4.19417 4.65036 4.42221 4.42221C4.65036 4.19417 5.01897 4.19417 5.24712 4.42221L7 6.1752L8.75288 4.42221C8.98103 4.19417 9.34964 4.19417 9.57779 4.42221C9.80583 4.65036 9.80583 5.01897 9.57779 5.24712L7.8248 7L9.57779 8.75288Z" fill="#EB5D6E"/>
</svg>
