<svg width="18" height="18" viewBox="0 0 18 18" fill="none" xmlns="http://www.w3.org/2000/svg">
<path d="M18 0H0V18H18V0Z" fill="white"/>
<path d="M0 10.6875H7.3125V18H10.6875V10.6875H18V7.3125H10.6875V0H7.3125V7.3125H0V10.6875Z" fill="#EB5D6E"/>
<path d="M14.3066 11.7393L18.0009 15.4335V11.7393H14.3066Z" fill="#3D90DC"/>
<path d="M11.7383 11.7393L17.9992 18.0001V16.2297L13.5088 11.7393H11.7383Z" fill="#0052B4"/>
<path d="M16.3315 17.9999L11.7383 13.4062V17.9999H16.3315Z" fill="#3D90DC"/>
<path d="M11.7383 11.739L17.9992 17.9999V16.2294L13.5088 11.739H11.7383Z" fill="#F0F0F0"/>
<path d="M11.7383 11.739L17.9992 17.9999V16.2294L13.5088 11.739H11.7383Z" fill="#EB5D6E"/>
<path d="M2.82312 11.7393L0 14.5624V11.7393H2.82312Z" fill="#3D90DC"/>
<path d="M6.26107 12.5352V17.9998H0.796875L6.26107 12.5352Z" fill="#3D90DC"/>
<path d="M4.4903 11.7393L0 16.2296V18L6.26076 11.7393H4.4903Z" fill="#EB5D6E"/>
<path d="M3.69422 6.26111L0 2.56689V6.26111H3.69422Z" fill="#3D90DC"/>
<path d="M6.26087 6.26087L0 0V1.77047L4.4904 6.26087H6.26087Z" fill="#0052B4"/>
<path d="M1.66797 0L6.26117 4.59362V0H1.66797Z" fill="#3D90DC"/>
<path d="M6.26087 6.26087L0 0V1.77047L4.4904 6.26087H6.26087Z" fill="#F0F0F0"/>
<path d="M6.26087 6.26087L0 0V1.77047L4.4904 6.26087H6.26087Z" fill="#EB5D6E"/>
<path d="M15.1777 6.2611L18.0009 3.43799V6.2611H15.1777Z" fill="#3D90DC"/>
<path d="M11.7383 5.46462V0H17.2025L11.7383 5.46462Z" fill="#3D90DC"/>
<path d="M13.5088 6.26076L17.999 1.77043V0L11.7383 6.26076H13.5088Z" fill="#EB5D6E"/>
</svg>
