<svg width="16" height="20" viewBox="0 0 16 20" fill="none" xmlns="http://www.w3.org/2000/svg">
<path d="M14.8777 7.44752L13.565 8.85275L7.65785 15.1758C6.56917 16.3324 4.81183 16.3289 3.72723 15.1679C2.64263 14.0069 2.63937 12.1257 3.71989 10.9604L9.62676 4.63547C9.86836 4.37671 10.2602 4.37671 10.502 4.63547C10.7436 4.89423 10.7436 5.31357 10.502 5.57234L4.5951 11.8972C3.99097 12.5439 3.99097 13.5922 4.5951 14.2389C5.19922 14.8856 6.17852 14.8856 6.78264 14.2389L12.6913 7.91588L14.004 6.5108C15.0916 5.34616 15.0912 3.45831 14.0033 2.29425C12.9153 1.13019 11.1519 1.13048 10.0643 2.29512L8.97059 3.46631L2.84482 10.0236L2.40715 10.492C0.877402 12.1807 0.896833 14.871 2.45063 16.5344C4.00456 18.1977 6.51781 18.2185 8.09539 16.581L14.6587 9.55514C14.8151 9.38787 15.043 9.32256 15.2564 9.3838C15.47 9.44503 15.6369 9.62351 15.6941 9.85216C15.7513 10.0808 15.6902 10.3246 15.5339 10.492L8.97059 17.5177C6.91513 19.7079 3.59135 19.7039 1.54064 17.5085C-0.510212 15.3134 -0.514016 11.7554 1.53208 9.55514L8.09539 2.52945L9.19072 1.35826C10.7703 -0.265877 13.2737 -0.238823 14.8222 1.41935C16.3708 3.07737 16.3954 5.75706 14.8777 7.44752Z" fill="#334E68"/>
</svg>
