<svg width="16" height="16" viewBox="0 0 16 16" fill="none" xmlns="http://www.w3.org/2000/svg">
<path d="M8 0C3.58862 0 0 3.58862 0 8C0 12.4114 3.58862 16 8 16C12.4114 16 16 12.4114 16 8C16 3.58862 12.4114 0 8 0ZM10.946 10.0033C11.2067 10.264 11.2067 10.6853 10.946 10.946C10.816 11.076 10.6454 11.1414 10.4746 11.1414C10.304 11.1414 10.1333 11.076 10.0033 10.946L8 8.94263L5.9967 10.946C5.8667 11.076 5.69604 11.1414 5.52539 11.1414C5.35461 11.1414 5.18396 11.076 5.05396 10.946C4.79333 10.6853 4.79333 10.264 5.05396 10.0033L7.05737 8L5.05396 5.9967C4.79333 5.73596 4.79333 5.3147 5.05396 5.05396C5.3147 4.79333 5.73596 4.79333 5.9967 5.05396L8 7.05737L10.0033 5.05396C10.264 4.79333 10.6853 4.79333 10.946 5.05396C11.2067 5.3147 11.2067 5.73596 10.946 5.9967L8.94263 8L10.946 10.0033Z" fill="#EB5D6E"/>
</svg>
