<svg width="17" height="12" viewBox="0 0 17 12" fill="none" xmlns="http://www.w3.org/2000/svg">
<path d="M9.65629 10.4829C9.5427 10.5981 9.38772 10.6624 9.22673 10.6624C9.06574 10.6624 8.91076 10.5981 8.79717 10.4829L7.22461 8.99998L8.94296 7.26719L9.22673 7.45005L15.0142 1.61386C15.3703 1.25485 15.9475 1.25485 16.303 1.61386L16.7325 2.04715C17.0885 2.40616 17.0885 2.98821 16.7325 3.34666L9.65629 10.4829Z" fill="#49E1BD"/>
<path d="M4.55673 10.4829C4.44313 10.5981 4.28815 10.6624 4.12716 10.6624C3.96618 10.6624 3.8112 10.5981 3.6976 10.4829L0.267015 7.02294C-0.0890051 6.66393 -0.0890051 6.08177 0.267015 5.72343L0.696576 5.29015C1.05271 4.93113 1.62935 4.93113 1.98537 5.29015L4.12716 7.45005L9.91461 1.61386C10.2707 1.25485 10.8479 1.25485 11.2034 1.61386L11.633 2.04715C11.989 2.40616 11.989 2.98821 11.633 3.34666L4.55673 10.4829Z" fill="#49E1BD"/>
</svg>
