<svg width="21" height="21" viewBox="0 0 21 21" fill="none" xmlns="http://www.w3.org/2000/svg">
<path d="M10.5003 1.16667C5.35401 1.16667 1.16699 5.35369 1.16699 10.5C1.16699 15.6463 5.35401 19.8333 10.5003 19.8333C15.6466 19.8333 19.8337 15.6463 19.8337 10.5C19.8337 5.35369 15.6466 1.16667 10.5003 1.16667ZM10.5003 19.0556C5.78276 19.0556 1.94476 15.2176 1.94476 10.5C1.94476 5.78244 5.78276 1.94443 10.5003 1.94443C15.2179 1.94443 19.0559 5.78244 19.0559 10.5C19.0559 15.2176 15.2179 19.0556 10.5003 19.0556Z" fill="#334E68"/>
<path fill-rule="evenodd" clip-rule="evenodd" d="M1.0498 10.5C1.0498 5.28926 5.28906 1.05 10.4998 1.05C15.7106 1.05 19.9498 5.28926 19.9498 10.5C19.9498 15.7108 15.7106 19.95 10.4998 19.95C5.28906 19.95 1.0498 15.7108 1.0498 10.5ZM10.4998 1.28334C5.41793 1.28334 1.28314 5.41813 1.28314 10.5C1.28314 15.5819 5.41793 19.7167 10.4998 19.7167C15.5817 19.7167 19.7165 15.5819 19.7165 10.5C19.7165 5.41813 15.5817 1.28334 10.4998 1.28334ZM10.4998 2.0611C5.84668 2.0611 2.0609 5.84688 2.0609 10.5C2.0609 15.1531 5.84668 18.9389 10.4998 18.9389C15.1529 18.9389 18.9387 15.1531 18.9387 10.5C18.9387 5.84688 15.1529 2.0611 10.4998 2.0611ZM1.82757 10.5C1.82757 5.71801 5.71781 1.82777 10.4998 1.82777C15.2818 1.82777 19.172 5.71801 19.172 10.5C19.172 15.282 15.2818 19.1722 10.4998 19.1722C5.71781 19.1722 1.82757 15.282 1.82757 10.5Z" fill="#334E68"/>
<path d="M15.5088 12.0719C15.298 12.0214 15.0899 12.1513 15.0405 12.3601C14.5392 14.4705 12.6723 15.9445 10.4999 15.9445C8.32497 15.9445 6.45724 14.4683 5.9582 12.3552C5.90843 12.1456 5.69767 12.0183 5.49033 12.0658C5.28106 12.1152 5.15156 12.3248 5.20092 12.5337C5.78349 14.9999 7.96264 16.7222 10.4999 16.7222C13.0341 16.7222 15.2125 15.0026 15.797 12.5401C15.8468 12.3309 15.7177 12.1213 15.5088 12.0719Z" fill="#334E68"/>
<path d="M7.38909 8.94447C7.81864 8.94447 8.16686 8.59625 8.16686 8.1667C8.16686 7.73715 7.81864 7.38894 7.38909 7.38894C6.95955 7.38894 6.61133 7.73715 6.61133 8.1667C6.61133 8.59625 6.95955 8.94447 7.38909 8.94447Z" fill="#334E68"/>
<path fill-rule="evenodd" clip-rule="evenodd" d="M7.38857 7.50561C7.02346 7.50561 6.72747 7.80159 6.72747 8.16671C6.72747 8.53182 7.02346 8.82781 7.38857 8.82781C7.75369 8.82781 8.04967 8.53182 8.04967 8.16671C8.04967 7.80159 7.75369 7.50561 7.38857 7.50561ZM6.49414 8.16671C6.49414 7.67272 6.89459 7.27227 7.38857 7.27227C7.88255 7.27227 8.28301 7.67273 8.28301 8.16671C8.28301 8.66069 7.88255 9.06114 7.38857 9.06114C6.89459 9.06114 6.49414 8.66069 6.49414 8.16671Z" fill="#334E68"/>
<path d="M13.6108 8.94447C14.0403 8.94447 14.3885 8.59625 14.3885 8.1667C14.3885 7.73715 14.0403 7.38894 13.6108 7.38894C13.1812 7.38894 12.833 7.73715 12.833 8.1667C12.833 8.59625 13.1812 8.94447 13.6108 8.94447Z" fill="#334E68"/>
<path fill-rule="evenodd" clip-rule="evenodd" d="M13.6112 7.50561C13.2461 7.50561 12.9501 7.80159 12.9501 8.16671C12.9501 8.53182 13.2461 8.82781 13.6112 8.82781C13.9763 8.82781 14.2723 8.53182 14.2723 8.16671C14.2723 7.80159 13.9763 7.50561 13.6112 7.50561ZM12.7168 8.16671C12.7168 7.67272 13.1172 7.27227 13.6112 7.27227C14.1052 7.27227 14.5057 7.67273 14.5057 8.16671C14.5057 8.66069 14.1052 9.06114 13.6112 9.06114C13.1172 9.06114 12.7168 8.66069 12.7168 8.16671Z" fill="#334E68"/>
</svg>
